<svg width="52.000000" height="52.000000" viewBox="0 0 52 52" fill="none" xmlns="http://www.w3.org/2000/svg" xmlns:xlink="http://www.w3.org/1999/xlink">
	<desc>
			Created with Pixso.
	</desc>
	<defs>
		<clipPath id="clip1_14">
			<rect id="instagram" rx="0.000000" width="23.000000" height="23.000000" transform="translate(14.500000 14.500000)" fill="white" fill-opacity="0"/>
		</clipPath>
		<clipPath id="clip1_12">
			<rect id="2" rx="0.000000" width="51.000000" height="51.000000" transform="translate(0.500000 0.500000)" fill="white" fill-opacity="0"/>
		</clipPath>
	</defs>
	<rect id="2" rx="0.000000" width="51.000000" height="51.000000" transform="translate(0.500000 0.500000)" fill="#000000" fill-opacity="0"/>
	<g clip-path="url(#clip1_12)">
		<path id="Круг" d="M26 1C39.8 1 50.99 12.19 50.99 25.99C50.99 39.8 39.8 51 26 51C12.19 51 1 39.8 1 25.99C1 12.19 12.19 1 26 1Z" fill="#000000" fill-opacity="0" fill-rule="evenodd"/>
		<path id="Круг" d="M50.99 25.99C50.99 12.19 39.8 1 26 1C12.19 1 1 12.19 1 25.99C1 39.8 12.19 51 26 51C39.8 51 50.99 39.8 50.99 25.99ZM47.31 17.17Q48.99 21.23 48.99 25.99Q48.99 30.76 47.31 34.82Q45.63 38.89 42.26 42.26Q38.89 45.63 34.82 47.31Q30.76 49 26 49Q21.23 49 17.17 47.31Q13.1 45.63 9.73 42.26Q6.36 38.89 4.68 34.82Q3 30.76 3 25.99Q3 21.23 4.68 17.17Q6.36 13.1 9.73 9.73Q13.1 6.36 17.17 4.68Q21.23 3 26 3Q30.76 3 34.82 4.68Q38.89 6.36 42.26 9.73Q45.63 13.1 47.31 17.17Z" fill="#FFFFFF" fill-opacity="1.000000" fill-rule="evenodd"/>
		<rect id="instagram" rx="0.000000" width="23.000000" height="23.000000" transform="translate(14.500000 14.500000)" fill="#FFFFFF" fill-opacity="0"/>
		<g clip-path="url(#clip1_14)">
			<path id="Vector" d="M37.97 21.05C37.92 19.78 37.71 18.9 37.41 18.14C37.11 17.33 36.64 16.61 36.03 16.01C35.43 15.4 34.7 14.93 33.9 14.63C33.14 14.33 32.27 14.13 30.99 14.07C29.71 14.01 29.3 14 26.04 14C22.78 14 22.37 14.01 21.09 14.07C19.82 14.12 18.94 14.33 18.18 14.62C17.38 14.93 16.65 15.4 16.05 16.01C15.44 16.61 14.97 17.34 14.67 18.13C14.37 18.9 14.17 19.77 14.11 21.05C14.05 22.33 14.04 22.74 14.04 26C14.04 29.26 14.05 29.66 14.11 30.94C14.16 32.22 14.37 33.1 14.67 33.86C14.97 34.66 15.44 35.38 16.05 35.98C16.65 36.59 17.38 37.07 18.18 37.37C18.94 37.66 19.81 37.87 21.09 37.92C22.37 37.98 22.78 38 26.03 38C29.29 38 29.7 37.98 30.98 37.92C32.26 37.87 33.13 37.66 33.89 37.37C35.51 36.74 36.78 35.47 37.4 33.86C37.7 33.09 37.91 32.22 37.96 30.94C38.02 29.66 38.03 29.26 38.03 26C38.03 22.74 38.03 22.33 37.97 21.05ZM35.81 30.85C35.76 32.02 35.56 32.65 35.4 33.08C34.99 34.12 34.16 34.95 33.12 35.36C32.7 35.52 32.06 35.72 30.89 35.77C29.63 35.82 29.25 35.84 26.04 35.84C22.84 35.84 22.46 35.82 21.2 35.77C20.02 35.72 19.39 35.52 18.97 35.36C18.45 35.16 17.98 34.86 17.59 34.46C17.19 34.07 16.89 33.6 16.7 33.08C16.53 32.66 16.33 32.02 16.28 30.85C16.23 29.59 16.21 29.21 16.21 26.01C16.21 22.8 16.23 22.42 16.28 21.16C16.33 19.99 16.53 19.35 16.7 18.93C16.89 18.41 17.19 17.94 17.6 17.55C17.98 17.15 18.45 16.85 18.97 16.66C19.4 16.49 20.03 16.3 21.2 16.25C22.47 16.19 22.85 16.18 26.05 16.18C29.26 16.18 29.64 16.19 30.9 16.25C32.07 16.3 32.7 16.49 33.12 16.66C33.64 16.85 34.12 17.15 34.5 17.55C34.9 17.94 35.21 18.41 35.4 18.93C35.56 19.35 35.76 19.99 35.81 21.16C35.87 22.42 35.88 22.8 35.88 26.01C35.88 29.21 35.87 29.58 35.81 30.85Z" fill="#FFFFFF" fill-opacity="1.000000" fill-rule="nonzero"/>
			<path id="Vector" d="M26.04 19.83C22.64 19.83 19.87 22.59 19.87 26C19.87 29.4 22.64 32.16 26.04 32.16C29.44 32.16 32.2 29.4 32.2 26C32.2 22.59 29.44 19.83 26.04 19.83ZM26.04 30C23.83 30 22.04 28.21 22.04 26C22.04 23.79 23.83 22 26.04 22C28.25 22 30.04 23.79 30.04 26C30.04 28.21 28.25 30 26.04 30Z" fill="#FFFFFF" fill-opacity="1.000000" fill-rule="nonzero"/>
			<path id="Vector" d="M33.89 19.59C33.89 20.38 33.24 21.03 32.45 21.03C31.65 21.03 31.01 20.38 31.01 19.59C31.01 18.79 31.65 18.15 32.45 18.15C33.24 18.15 33.89 18.79 33.89 19.59Z" fill="#FFFFFF" fill-opacity="1.000000" fill-rule="nonzero"/>
		</g>
	</g>
</svg>
