<svg width="53.000000" height="52.000000" viewBox="0 0 53 52" fill="none" xmlns="http://www.w3.org/2000/svg" xmlns:xlink="http://www.w3.org/1999/xlink">
	<desc>
			Created with Pixso.
	</desc>
	<defs>
		<clipPath id="clip1_10">
			<rect id="pinterest" rx="0.000000" width="23.000000" height="23.000000" transform="translate(15.500000 14.500000)" fill="white" fill-opacity="0"/>
		</clipPath>
		<clipPath id="clip1_8">
			<rect id="3" rx="0.000000" width="52.000000" height="51.000000" transform="translate(0.500000 0.500000)" fill="white" fill-opacity="0"/>
		</clipPath>
	</defs>
	<rect id="3" rx="0.000000" width="52.000000" height="51.000000" transform="translate(0.500000 0.500000)" fill="#000000" fill-opacity="0"/>
	<g clip-path="url(#clip1_8)">
		<path id="Круг" d="M27 1C40.8 1 52 12.19 52 25.99C52 39.8 40.8 51 27 51C13.19 51 1.99 39.8 1.99 25.99C1.99 12.19 13.19 1 27 1Z" fill="#000000" fill-opacity="0" fill-rule="evenodd"/>
		<path id="Круг" d="M52 25.99C52 12.19 40.8 1 27 1C13.19 1 1.99 12.19 1.99 25.99C1.99 39.8 13.19 51 27 51C40.8 51 52 39.8 52 25.99ZM48.31 17.17Q50 21.23 50 25.99Q50 30.76 48.31 34.82Q46.63 38.89 43.26 42.26Q39.89 45.63 35.82 47.31Q31.76 49 27 49Q22.23 49 18.17 47.31Q14.1 45.63 10.73 42.26Q7.36 38.89 5.68 34.82Q3.99 30.76 3.99 25.99Q3.99 21.23 5.68 17.17Q7.36 13.1 10.73 9.73Q14.1 6.36 18.17 4.68Q22.23 3 27 3Q31.76 3 35.82 4.68Q39.89 6.36 43.26 9.73Q46.63 13.1 48.31 17.17Z" fill="#FFFFFF" fill-opacity="1.000000" fill-rule="evenodd"/>
		<rect id="pinterest" rx="0.000000" width="23.000000" height="23.000000" transform="translate(15.500000 14.500000)" fill="#FFFFFF" fill-opacity="0"/>
		<g clip-path="url(#clip1_10)">
			<path id="Vector" d="M27.32 14C20.74 14 17.25 18.21 17.25 22.81C17.25 24.94 18.44 27.6 20.34 28.44C20.89 28.68 20.82 28.39 21.28 26.6C21.32 26.45 21.3 26.32 21.18 26.18C18.45 23.03 20.65 16.54 26.93 16.54C36.03 16.54 34.33 29.13 28.51 29.13C27.02 29.13 25.9 27.95 26.25 26.5C26.68 24.76 27.52 22.9 27.52 21.65C27.52 18.5 22.83 18.97 22.83 23.14C22.83 24.43 23.29 25.3 23.29 25.3C23.29 25.3 21.78 31.39 21.5 32.53C21.02 34.46 21.56 37.58 21.61 37.85C21.64 38 21.8 38.05 21.9 37.92C22.04 37.73 23.87 35.13 24.38 33.25C24.57 32.56 25.33 29.78 25.33 29.78C25.83 30.69 27.28 31.45 28.83 31.45C33.42 31.45 36.74 27.41 36.74 22.4C36.73 17.59 32.62 14 27.32 14L27.32 14Z" fill="#FFFFFF" fill-opacity="1.000000" fill-rule="nonzero"/>
		</g>
	</g>
</svg>
